<svg width="26" height="26" viewBox="0 0 26 26" fill="none" xmlns="http://www.w3.org/2000/svg">
<path fill-rule="evenodd" clip-rule="evenodd" d="M21.493 19.7094C21.493 23.28 16.5963 23.6928 12.9141 23.6928L12.6506 23.6925C10.3046 23.6868 4.33301 23.5387 4.33301 19.6877C4.33301 16.1899 9.03289 15.7224 12.6871 15.7048L13.1776 15.7045C15.5235 15.7102 21.493 15.8583 21.493 19.7094ZM12.9141 17.3293C8.29801 17.3293 5.95801 18.1223 5.95801 19.6877C5.95801 21.2672 8.29801 22.0678 12.9141 22.0678C17.5291 22.0678 19.868 21.2748 19.868 19.7094C19.868 18.1299 17.5291 17.3293 12.9141 17.3293ZM12.9141 2.1665C16.0861 2.1665 18.6655 4.747 18.6655 7.919C18.6655 11.091 16.0861 13.6704 12.9141 13.6704H12.8794C9.71393 13.6607 7.14967 11.0791 7.16047 7.91575C7.16047 4.747 9.74101 2.1665 12.9141 2.1665ZM12.9141 3.7135C10.5947 3.7135 8.70749 5.59959 8.70749 7.919C8.69993 10.2308 10.573 12.1158 12.8827 12.1245L12.9141 12.898V12.1245C15.2324 12.1245 17.1185 10.2373 17.1185 7.919C17.1185 5.59959 15.2324 3.7135 12.9141 3.7135Z" fill="white"/>
</svg>
