<svg width="26" height="33" viewBox="0 0 26 33" fill="none" xmlns="http://www.w3.org/2000/svg">
<g clip-path="url(#clip0)">
<path d="M5.08506 19.3299L5.14015 19.1904L5.08506 19.3299C5.15344 19.3569 5.22649 19.3701 5.29997 19.3687H10.4114V19.3687L10.4148 19.3687C10.5601 19.3654 10.6985 19.3054 10.8002 19.2014C10.9018 19.0975 10.9588 18.9579 10.9588 18.8124C10.9588 18.667 10.9018 18.5274 10.8002 18.4234C10.6985 18.3195 10.5601 18.2595 10.4148 18.2562L10.4148 18.2562H10.4114H5.29997C5.22648 18.2548 5.15344 18.268 5.08506 18.295C5.01614 18.3222 4.95335 18.3629 4.90037 18.4147C4.8474 18.4665 4.80531 18.5284 4.77657 18.5967C4.74783 18.665 4.73303 18.7383 4.73303 18.8124C4.73303 18.8865 4.74783 18.9599 4.77657 19.0282C4.80531 19.0965 4.8474 19.1584 4.90037 19.2102C4.95335 19.262 5.01614 19.3027 5.08506 19.3299ZM4.28754 7.85C2.94459 7.85 1.85 8.94181 1.85 10.2852V12.483V15.3204V22.356C1.85 23.6992 2.94439 24.7936 4.28754 24.7936H22.491C23.8341 24.7936 24.9294 23.6992 24.9294 22.356V15.3204V12.483V10.2852C24.9294 8.94174 23.8339 7.85 22.491 7.85H4.28754ZM4.28754 8.9625H22.491C23.2328 8.9625 23.8169 9.54419 23.8169 10.2852V11.9252H2.9625V10.2852C2.9625 9.54408 3.54583 8.9625 4.28754 8.9625ZM2.9625 13.0385H23.8169V14.7626H2.9625V13.0385ZM2.9625 15.8751H23.8169V22.356C23.8169 23.0973 23.2325 23.6811 22.491 23.6811H4.28754C3.54615 23.6811 2.9625 23.0974 2.9625 22.356V15.8751ZM5.29996 20.4517C5.22648 20.4503 5.15344 20.4635 5.08506 20.4905C5.01614 20.5177 4.95335 20.5584 4.90038 20.6102C4.8474 20.662 4.80532 20.7239 4.77658 20.7922C4.74785 20.8605 4.73305 20.9338 4.73305 21.0079C4.73305 21.082 4.74785 21.1554 4.77658 21.2237C4.80532 21.292 4.84741 21.3539 4.90038 21.4057C4.95335 21.4575 5.01614 21.4982 5.08506 21.5254C5.15344 21.5524 5.22648 21.5656 5.29997 21.5642H7.48043C7.55392 21.5656 7.62696 21.5524 7.69533 21.5254C7.76425 21.4982 7.82704 21.4575 7.88001 21.4057C7.93299 21.3539 7.97508 21.292 8.00381 21.2237L7.86555 21.1655L8.00381 21.2237C8.03255 21.1554 8.04735 21.082 8.04735 21.0079C8.04735 20.9338 8.03255 20.8605 8.00381 20.7922C7.97508 20.7239 7.93299 20.662 7.88001 20.6102C7.82704 20.5584 7.76425 20.5177 7.69533 20.4905C7.62696 20.4635 7.55392 20.4503 7.48043 20.4517H5.29996Z" fill="white" stroke="white" stroke-width="0.3"/>
</g>
<defs>
<clipPath id="clip0">
<rect width="26" height="32.5" fill="white"/>
</clipPath>
</defs>
</svg>
