<svg width="26" height="32" viewBox="0 0 26 32" fill="none" xmlns="http://www.w3.org/2000/svg">
<path d="M10.6417 25.7625V25.7623L10.6358 19.5584C10.8066 19.225 11.3685 18.374 12.6628 18.374H12.7289C14.0183 18.374 14.5813 19.2188 14.75 19.5383V25.7625C14.75 26.4249 15.2956 26.9569 15.9591 26.9569H23.4323C24.0956 26.9569 24.6412 26.4249 24.6412 25.7625V16.5153C24.6412 16.1958 24.5143 15.8948 24.2859 15.6696L24.2858 15.6695L13.5491 5.09773L13.549 5.09767C13.0775 4.63372 12.3129 4.6344 11.8421 5.09799L1.10514 15.6698C0.876787 15.8946 0.75 16.1957 0.75 16.5153V25.7625C0.75 26.4249 1.2959 26.9569 1.95914 26.9569H9.43258C10.0958 26.9569 10.6417 26.4249 10.6417 25.7625ZM23.1365 16.6384V25.4677H16.2546V19.4785C16.2546 19.3021 16.2168 19.1313 16.1418 18.9741L15.9162 19.0817L16.142 18.9745C15.9098 18.4854 14.9746 16.8848 12.7286 16.8848H12.6626C10.4166 16.8848 9.48136 18.4853 9.24963 18.9735C9.17456 19.1312 9.13682 19.3018 9.13682 19.4785V25.4677H2.25464V16.6384L12.6958 6.35811L23.1365 16.6384Z" fill="white" stroke="white" stroke-width="0.5"/>
</svg>
